<svg xmlns="http://www.w3.org/2000/svg" viewBox="0 0 596 596"><defs><style>.cls-1{fill:#bcbcbc;}.cls-2{fill:#db882a;}.cls-3{fill:#fff;}</style></defs><title>9 Events</title><g id="Layer_2" data-name="Layer 2"><g id="Layer_5" data-name="Layer 5"><rect class="cls-1" x="10" y="10" width="576" height="576"/><path class="cls-2" d="M576,20V576H20V20H576M596,0H0V596H596V0Z"/><rect class="cls-1" x="20" y="20" width="181.77" height="181.77"/><rect class="cls-1" x="394.23" y="394.23" width="181.77" height="181.77"/><rect class="cls-1" x="394.23" y="20" width="181.77" height="181.77"/><rect class="cls-1" x="20" y="394.23" width="181.77" height="181.77"/><rect class="cls-1" x="207.12" y="207.12" width="181.77" height="181.77"/><rect class="cls-1" x="394.23" y="207.12" width="181.77" height="181.77"/><rect class="cls-1" x="20" y="207.12" width="181.77" height="181.77"/><rect class="cls-1" x="207.12" y="20" width="181.77" height="181.77"/><rect class="cls-1" x="207.12" y="394.23" width="181.77" height="181.77"/><rect class="cls-3" x="20" y="20" width="181.77" height="181.77"/><rect class="cls-3" x="394.23" y="394.23" width="181.77" height="181.77"/><rect class="cls-3" x="394.23" y="20" width="181.77" height="181.77"/><rect class="cls-3" x="20" y="394.23" width="181.77" height="181.77"/><rect class="cls-3" x="207.12" y="207.12" width="181.77" height="181.77"/><rect class="cls-3" x="394.23" y="207.12" width="181.77" height="181.77"/><rect class="cls-3" x="20" y="207.12" width="181.77" height="181.77"/><rect class="cls-3" x="207.12" y="20" width="181.77" height="181.77"/><rect class="cls-3" x="207.12" y="394.23" width="181.77" height="181.77"/><path d="M100,134.15v-2c8-.51,8.42-.87,8.42-6.27V98.22c0-3.67-.5-3.81-3.67-4.1l-3.53-.36V92a59.45,59.45,0,0,0,13.18-3.53v37.44c0,5.47.43,5.76,8.5,6.27v2Z"/><path d="M119.64,308.05v5.47c0,4.75.28,5.11,6.12,5.62v2H107.47v-2c6.12-.51,6.48-.94,6.48-5.69v-5.4h-19v-2.16c6.84-9.72,14.26-20.24,21.46-30.25h3.24v28.95h7v3.46ZM114,283.21c-4.54,6.62-9.58,14-14.55,21.38H114Z"/><path d="M309.88,276.29l.43.58-1.87,4.75H291.88c-.65,4-1.59,9.58-2.24,13.11,2.74-1,6.7-2.09,8.5-2.09,8.86,0,13.54,6.26,13.54,12.24,0,4.32-1.8,8.5-6.2,12.1-4,3.16-8.93,5-12.74,5a10.72,10.72,0,0,1-7.49-2.81c-1-.94-1.3-1.51-1.15-2.45a3.69,3.69,0,0,1,1.51-2.45,1.55,1.55,0,0,1,2,0c2.08,1.87,4.6,4,9.07,4,6.05,0,8.93-5.18,8.93-10.58,0-6.34-3.82-10.88-11.81-10.88a21.41,21.41,0,0,0-7.2,1.3l-.22-.29c1.08-5.61,2.67-15.77,3.46-21.53Z"/><path d="M482.52,294a10.18,10.18,0,0,1,4.61-1.23c7.63,0,12.89,6,12.89,13.32,0,8.64-6.2,15.92-14.84,15.92s-15-7-15-18c0-14.83,11.3-24.19,19.94-27.14a59.67,59.67,0,0,1,8.14-1.87l.43,2.37a44.83,44.83,0,0,0-7.85,2.59,22.91,22.91,0,0,0-13.18,16.49Zm1.73,2.88a14.43,14.43,0,0,0-7,2,24.19,24.19,0,0,0-.43,4.9c0,9,3.38,15.62,9.5,15.62,5.62,0,7.35-5.9,7.35-10.72C493.68,302.72,490.8,296.89,484.25,296.89Z"/><path d="M492.46,487.27l-4.83,2.45a9.33,9.33,0,0,1-4.32,1.08c-7.7,0-13-5.91-13-13.47,0-7.05,5.47-14.9,14.76-14.9s14.47,8.21,14.47,18a28.65,28.65,0,0,1-18.21,26.93,30.82,30.82,0,0,1-8.57,1.87l-.36-2.23C482.66,505.13,490.08,498.43,492.46,487.27ZM484.25,465c-5.62,0-7.56,5.33-7.56,10.37,0,6.33,3.52,11.59,9.57,11.59a11,11,0,0,0,6.48-2.09,35.47,35.47,0,0,0,.29-4.68C493,473.73,491.23,465,484.25,465Z"/><path d="M298.61,462.43c6.92,0,11.74,4.82,11.74,10.65a8.85,8.85,0,0,1-2,5.84,60.19,60.19,0,0,1-6,4.61c5,2.73,9.86,6.19,9.86,12.45,0,8.43-7.63,13-14.47,13-8,0-13.9-4.61-13.9-11.88a8.56,8.56,0,0,1,3.32-7.13,67.48,67.48,0,0,1,6.48-4.47c-4.68-2.73-8-6.19-8-11.3C285.65,468,290.77,462.43,298.61,462.43Zm0,44.21c4.83,0,7.78-3.24,7.78-8.5,0-5.76-4.82-8.56-10.66-11.37-3.88,2.23-6,5.61-6,9.86C289.69,503.26,293.86,506.64,298.61,506.64Zm-.86-41.76c-4.32,0-6.62,3.31-6.62,7.34,0,5.26,3.52,7.2,9.14,10.15,2.81-2.16,4.75-4.68,4.75-8.92C305,467.4,301.5,464.88,297.75,464.88Z"/><path d="M126.66,464.23c-6.91,14.62-13.61,29.16-20.59,44.07l-5.18.5-.51-.79a403,403,0,0,0,21.1-39.39H106.07c-4.68,0-5,.65-6.91,5.4H96.93c.72-4,1-7.63,1.36-10.73h27.94Z"/><path d="M312.94,124.58c-.93,3.24-2.16,6.91-2.88,9.57H282.92v-1.73c4-3.88,8.28-8.13,11.81-12.24,4.53-5.33,8.85-11.09,8.85-17.35,0-6-3.16-9.43-8.42-9.43-5,0-8.07,3.89-9.94,6.69l-1.65-1.51,4.1-5.83a13.06,13.06,0,0,1,9.86-4.32c6.85,0,12.25,4.68,12.25,12.46,0,6.12-2.24,10.44-9.08,17.42-3.09,3.24-7.63,7.63-10.73,10.59h13.76c3.89,0,5-.36,7.41-4.9Z"/><path d="M471.5,97.07l3.39-4.54a12.62,12.62,0,0,1,9.28-4.1c6.56,0,10.88,4.1,10.88,9.57a7.83,7.83,0,0,1-2.23,5.33,30.35,30.35,0,0,1-5.12,3.89c6.7,1.44,10.66,5.83,10.66,11.09,0,11.74-13.83,16.71-18.94,16.71-3.38,0-6.48-1.44-7.49-2.52a3.23,3.23,0,0,1-1.08-2.38,4.32,4.32,0,0,1,1.66-2.74,1.35,1.35,0,0,1,1.87.08,13.29,13.29,0,0,0,8.93,3.81c5.19,0,8.86-3.89,8.86-10.87-.08-6.63-4.9-9.22-9.51-9.22a18.23,18.23,0,0,0-4.82.79l-.51-2.16c6.41-2.08,11.6-5,11.6-10.29,0-4.25-2.74-6.7-6.92-6.7-4,0-7.12,3-9,5.69Z"/></g></g></svg>