<svg xmlns="http://www.w3.org/2000/svg" viewBox="0 0 596 596"><defs><style>.cls-1{fill:#bcbcbc;}.cls-1,.cls-2{stroke:#bcbcbc;stroke-miterlimit:10;stroke-width:20px;}.cls-2{fill:none;}.cls-3{fill:#fff;}.cls-4{fill:#db882a;}</style></defs><title>OneYear</title><g id="Layer_2" data-name="Layer 2"><g id="Layer_2-2" data-name="Layer 2"><g id="GreyGrid"><rect class="cls-1" x="10" y="10" width="576" height="576"/><line class="cls-2" x1="298" y1="10" x2="298" y2="586"/><line class="cls-2" x1="10" y1="298" x2="586" y2="298"/><rect class="cls-3" x="20" y="20" width="52" height="52"/><rect class="cls-3" x="74" y="20" width="52" height="52"/><rect class="cls-3" x="128" y="20" width="52" height="52"/><rect class="cls-3" x="182" y="20" width="52" height="52"/><rect class="cls-3" x="236" y="20" width="52" height="52"/><rect class="cls-3" x="20" y="74" width="52" height="52"/><rect class="cls-3" x="74" y="74" width="52" height="52"/><rect class="cls-3" x="128" y="74" width="52" height="52"/><rect class="cls-3" x="182" y="74" width="52" height="52"/><rect class="cls-3" x="236" y="74" width="52" height="52"/><rect class="cls-3" x="20" y="128" width="52" height="52"/><rect class="cls-3" x="74" y="128" width="52" height="52"/><rect class="cls-3" x="128" y="128" width="52" height="52"/><rect class="cls-3" x="182" y="128" width="52" height="52"/><rect class="cls-3" x="236" y="128" width="52" height="52"/><rect class="cls-3" x="20" y="182" width="52" height="52"/><rect class="cls-3" x="74" y="182" width="52" height="52"/><rect class="cls-3" x="128" y="182" width="52" height="52"/><rect class="cls-3" x="182" y="182" width="52" height="52"/><rect class="cls-3" x="236" y="182" width="52" height="52"/><rect class="cls-3" x="20" y="236" width="52" height="52"/><rect class="cls-3" x="74" y="236" width="52" height="52"/><rect class="cls-3" x="128" y="236" width="52" height="52"/><rect class="cls-3" x="182" y="236" width="52" height="52"/><rect class="cls-3" x="236" y="236" width="52" height="52"/><rect class="cls-3" x="308" y="20" width="52" height="52"/><rect class="cls-3" x="362" y="20" width="52" height="52"/><rect class="cls-3" x="416" y="20" width="52" height="52"/><rect class="cls-3" x="470" y="20" width="52" height="52"/><rect class="cls-3" x="524" y="20" width="52" height="52"/><rect class="cls-3" x="308" y="74" width="52" height="52"/><rect class="cls-3" x="362" y="74" width="52" height="52"/><rect class="cls-3" x="416" y="74" width="52" height="52"/><rect class="cls-3" x="470" y="74" width="52" height="52"/><rect class="cls-3" x="524" y="74" width="52" height="52"/><rect class="cls-3" x="308" y="128" width="52" height="52"/><rect class="cls-3" x="362" y="128" width="52" height="52"/><rect class="cls-3" x="416" y="128" width="52" height="52"/><rect class="cls-3" x="470" y="128" width="52" height="52"/><rect class="cls-3" x="524" y="128" width="52" height="52"/><rect class="cls-3" x="308" y="182" width="52" height="52"/><rect class="cls-3" x="362" y="182" width="52" height="52"/><rect class="cls-3" x="416" y="182" width="52" height="52"/><rect class="cls-3" x="470" y="182" width="52" height="52"/><rect class="cls-3" x="524" y="182" width="52" height="52"/><rect class="cls-3" x="308" y="236" width="52" height="52"/><rect class="cls-3" x="362" y="236" width="52" height="52"/><rect class="cls-3" x="416" y="236" width="52" height="52"/><rect class="cls-3" x="470" y="236" width="52" height="52"/><rect class="cls-3" x="524" y="236" width="52" height="52"/><rect class="cls-3" x="308" y="308" width="52" height="52"/><rect class="cls-3" x="362" y="308" width="52" height="52"/><rect class="cls-3" x="416" y="308" width="52" height="52"/><rect class="cls-3" x="470" y="308" width="52" height="52"/><rect class="cls-3" x="524" y="308" width="52" height="52"/><rect class="cls-3" x="308" y="362" width="52" height="52"/><rect class="cls-3" x="362" y="362" width="52" height="52"/><rect class="cls-3" x="416" y="362" width="52" height="52"/><rect class="cls-3" x="470" y="362" width="52" height="52"/><rect class="cls-3" x="524" y="362" width="52" height="52"/><rect class="cls-3" x="308" y="416" width="52" height="52"/><rect class="cls-3" x="362" y="416" width="52" height="52"/><rect class="cls-3" x="416" y="416" width="52" height="52"/><rect class="cls-3" x="470" y="416" width="52" height="52"/><rect class="cls-3" x="524" y="416" width="52" height="52"/><rect class="cls-3" x="308" y="470" width="52" height="52"/><rect class="cls-3" x="362" y="470" width="52" height="52"/><rect class="cls-3" x="416" y="470" width="52" height="52"/><rect class="cls-3" x="470" y="470" width="52" height="52"/><rect class="cls-3" x="524" y="470" width="52" height="52"/><rect class="cls-3" x="308" y="524" width="52" height="52"/><rect class="cls-3" x="362" y="524" width="52" height="52"/><rect class="cls-3" x="416" y="524" width="52" height="52"/><rect class="cls-3" x="470" y="524" width="52" height="52"/><rect class="cls-3" x="524" y="524" width="52" height="52"/><rect class="cls-3" x="20" y="308" width="52" height="52"/><rect class="cls-3" x="74" y="308" width="52" height="52"/><rect class="cls-3" x="128" y="308" width="52" height="52"/><rect class="cls-3" x="182" y="308" width="52" height="52"/><rect class="cls-3" x="236" y="308" width="52" height="52"/><rect class="cls-3" x="20" y="362" width="52" height="52"/><rect class="cls-3" x="74" y="362" width="52" height="52"/><rect class="cls-3" x="128" y="362" width="52" height="52"/><rect class="cls-3" x="182" y="362" width="52" height="52"/><rect class="cls-3" x="236" y="362" width="52" height="52"/><rect class="cls-3" x="20" y="416" width="52" height="52"/><rect class="cls-3" x="74" y="416" width="52" height="52"/><rect class="cls-3" x="128" y="416" width="52" height="52"/><rect class="cls-3" x="182" y="416" width="52" height="52"/><rect class="cls-3" x="236" y="416" width="52" height="52"/><rect class="cls-3" x="20" y="470" width="52" height="52"/><rect class="cls-3" x="74" y="470" width="52" height="52"/><rect class="cls-3" x="128" y="470" width="52" height="52"/><rect class="cls-3" x="182" y="470" width="52" height="52"/><rect class="cls-3" x="236" y="470" width="52" height="52"/><rect class="cls-3" x="20" y="524" width="52" height="52"/><rect class="cls-3" x="74" y="524" width="52" height="52"/><rect class="cls-3" x="128" y="524" width="52" height="52"/><rect class="cls-3" x="182" y="524" width="52" height="52"/><rect class="cls-3" x="236" y="524" width="52" height="52"/></g><rect class="cls-3" x="21" y="21" width="52" height="52"/><path class="cls-4" d="M72,22V72H22V22H72m2-2H20V74H74V20Z"/></g></g></svg>