<?xml version="1.0" standalone="no"?>
<!DOCTYPE svg PUBLIC "-//W3C//DTD SVG 20010904//EN"
 "http://www.w3.org/TR/2001/REC-SVG-20010904/DTD/svg10.dtd">
<svg version="1.0" xmlns="http://www.w3.org/2000/svg"
 width="1024.000000pt" height="768.000000pt" viewBox="0 0 1024.000000 768.000000"
 preserveAspectRatio="xMidYMid meet">

<g transform="translate(0.000000,768.000000) scale(0.100000,-0.100000)"
fill="#989898" stroke="none">
<path d="M3212 5793 c-18 -9 -44 -28 -57 -42 -12 -14 -61 -69 -106 -121 -46
-52 -86 -97 -89 -100 -3 -3 -34 -39 -70 -80 -36 -41 -85 -96 -109 -122 l-44
-48 -928 -2 -929 -3 -27 -28 -28 -27 0 -1410 0 -1410 28 -27 27 -28 2450 0
2450 0 27 28 28 27 0 1410 0 1410 -28 27 -27 28 -959 3 -958 2 -44 48 c-24 26
-73 81 -109 122 -36 41 -67 77 -70 80 -3 3 -43 48 -89 100 -45 52 -94 107
-107 121 -51 57 -161 77 -232 42z"/>
</g>
</svg>
