<svg width="800px" height="300px" xmlns="http://www.w3.org/2000/svg" 
    xmlns:svg="http://www.w3.org/2000/svg"
    xmlns:xlink="http://www.w3.org/1999/xlink">
    <rect id="timeline" x='0' y='96' height="12px" width="800px" fill="#989898" rx="6px" ry="6px"></rect>
    <text x="10" y="45" font-size="15px">1786</text>
    <rect id="1786" x='20' y='55' height="100px" width="12px" fill="#4A90E2" rx="6px" ry="6px" ></rect>

    <text x="50" y="78" font-size="15px">1788</text>
    <rect id="1788" x='60' y='88' height="30px" width="12px" fill="#4A90E2" rx="6px" ry="6px"></rect>
    <rect x='100' y='55' height="100px" width="12px" fill="#4A90E2" rx="6px" ry="6px"></rect>
    <rect x='250' y='55' height="100px" width="12px" fill="#4A90E2" rx="6px" ry="6px"></rect>
    <rect x='400' y='55' height="100px" width="12px" fill="#4A90E2" rx="6px" ry="6px"></rect>
    <rect x='670' y='55' height="100px" width="12px" fill="#4A90E2" rx="6px" ry="6px"></rect>
    

    <!-- frame -->
    <g id="pic1"  visibility="hidden">
        <g transform="translate(300,160) scale(0.05,-0.05)"
            fill="#4A90E2" stroke="none">
            <path d="M708 2530 l-76 -160 69 0 69 0 0 -970 c0 -963 0 -970 20 -970 20 0 20 7 20 970 l0 970 69 0 69 0 -76 160 c-42 88 -79 160 -82 160 -3 0 -40 -72 -82 -160z"/>
        </g>
        <g transform="translate(257,280) scale(0.025,-0.025)"
            fill="#989898" stroke="none">
            <path d="M3212 5793 c-18 -9 -44 -28 -57 -42 -12 -14 -61 -69 -106 -121 -46
            -52 -86 -97 -89 -100 -3 -3 -34 -39 -70 -80 -36 -41 -85 -96 -109 -122 l-44
            -48 -928 -2 -929 -3 -27 -28 -28 -27 0 -1410 0 -1410 28 -27 27 -28 2450 0
            2450 0 27 28 28 27 0 1410 0 1410 -28 27 -27 28 -959 3 -958 2 -44 48 c-24 26
            -73 81 -109 122 -36 41 -67 77 -70 80 -3 3 -43 48 -89 100 -45 52 -94 107
            -107 121 -51 57 -161 77 -232 42z"/>
        </g>
        <image xlink:href="army.jpg" width="22%" height="22%" x="252" y="152" />
    </g>

    <g id="pic2" transform="translate(238,70) scale(0.3,0.3)">
        <g transform="translate(257,280) scale(0.025,-0.025)"
            fill="#989898" stroke="none">
            <path d="M3212 5793 c-18 -9 -44 -28 -57 -42 -12 -14 -61 -69 -106 -121 -46
            -52 -86 -97 -89 -100 -3 -3 -34 -39 -70 -80 -36 -41 -85 -96 -109 -122 l-44
            -48 -928 -2 -929 -3 -27 -28 -28 -27 0 -1410 0 -1410 28 -27 27 -28 2450 0
            2450 0 27 28 28 27 0 1410 0 1410 -28 27 -27 28 -959 3 -958 2 -44 48 c-24 26
            -73 81 -109 122 -36 41 -67 77 -70 80 -3 3 -43 48 -89 100 -45 52 -94 107
            -107 121 -51 57 -161 77 -232 42z"/>
        </g>
        <image xlink:href="army.jpg" width="22%" height="22%" x="252" y="152" />
    </g>

    <script type="text/javascript"><![CDATA[
    var small = document.getElementById('pic2');
    var big = document.getElementById('pic1');
    small.onmouseover = function() {
        document.getElementById('pic1').style.visibility="visible";
        document.getElementById('pic2').style.opacity="0";
    }
    small.onmouseout = function() {
        document.getElementById('pic2').style.opacity="100";
        document.getElementById('pic1').style.visibility="hidden";
    }
  ]]></script>
</svg>