<?xml version="1.0" encoding="UTF-8"?>
<svg width="691px" height="812px" viewBox="0 0 691 812" version="1.1" xmlns="http://www.w3.org/2000/svg" xmlns:xlink="http://www.w3.org/1999/xlink">
     <!--Generator: Sketch 52.2 (67145) - http://www.bohemiancoding.com/sketch-->
    <g id="Page-1" stroke="none" stroke-width="1" fill="none" fill-rule="evenodd" stroke-linecap="square">
        <g id="0204-copy-3" transform="translate(-749.000000, -21.000000)" fill-rule="nonzero" stroke="#979797">
            <g id="Group-22" transform="translate(749.000000, 21.000000)">
                <g id="Group-11">
                    <g id="Group-30" transform="translate(0.000000, 112.000000)">
                        <path d="M75.0130854,58.0223077 L552.920179,58.0223077" id="Line-6"></path>
                        <path d="M75.0130854,115.488846 L610.336885,115.488846" id="Line-6-Copy-4"></path>
                        <path d="M148.51584,230.421923 L683.83964,230.421923" id="Line-6-Copy-9"></path>
                        <path d="M183.756887,259.155192 L719.080687,259.155192" id="Line-6-Copy-8"></path>
                        <path d="M204.901515,287.888462 L719.080687,287.888462" id="Line-6-Copy-10"></path>
                        <path d="M259.273416,316.621731 L688.2073,316.621731" id="Line-6-Copy-11"></path>
                        <path d="M204.901515,345.688462 L692.234848,345.355" id="Line-6-Copy-12"></path>
                        <path d="M258.266529,378.478846 L730.496556,374.088269" id="Line-6-Copy-13"></path>
                        <path d="M217.991047,402.821538 L698.276171,402.821538" id="Line-6-Copy-14"></path>
                        <path d="M249.204545,432.666346 L695.25551,432.666346" id="Line-6-Copy-15"></path>
                        <path d="M276.390496,461.121731 L600.608127,462.511154" id="Line-6-Copy-16"></path>
                        <path d="M263.118836,489.577115 L528.112259,492.355962" id="Line-6-Copy-17"></path>
                        <path d="M284.263464,519.421923 L549.256887,522.200769" id="Line-6-Copy-18"></path>
                        <path d="M242.981095,549.266731 L507.974518,552.045577" id="Line-6-Copy-19"></path>
                        <path d="M310.442528,577.444231 L491.864325,577.444231" id="Line-6-Copy-20"></path>
                        <path d="M45.8133609,144.222115 L660.94463,144.222115" id="Line-6-Copy-5"></path>
                        <path d="M24.6687328,172.955385 L688.2073,172.955385" id="Line-6-Copy-6"></path>
                        <path d="M0.503443526,201.688654 L721.434573,201.688654" id="Line-6-Copy-7"></path>
                        <path d="M35.7444904,86.7555769 L710.358815,86.7555769" id="Line-6-Copy-3"></path>
                        <path d="M258.266529,0.555769231 L552.920179,0.555769231" id="Line-6-Copy-2"></path>
                        <path d="M106.226584,29.2890385 L628.944049,29.2890385" id="Line-6-Copy"></path>
                    </g>
                    <g id="Group-29" transform="translate(91.000000, 0.000000)">
                        <path d="M0.503696858,151.832877 L0.503696858,334.254795" id="Line-7"></path>
                        <path d="M24.0400773,115.682192 L25.047471,334.254795" id="Line-7-Copy"></path>
                        <path d="M48.5838515,93.9917808 L48.5838515,355.389041" id="Line-7-Copy-2"></path>
                        <path d="M73.1276256,116.238356 L73.1276256,334.254795" id="Line-7-Copy-3"></path>
                        <path d="M96.664006,141.821918 L96.664006,359.838356" id="Line-7-Copy-4"></path>
                        <path d="M120.200386,98.4410959 L120.200386,325.356164" id="Line-7-Copy-5"></path>
                        <path d="M143.736767,33.9260274 L143.736767,474.408219" id="Line-7-Copy-6"></path>
                        <path d="M169.287935,0.556164384 L169.105715,573.794795" id="Line-7-Copy-7"></path>
                        <path d="M193.831709,59.509589 L193.649489,632.748219" id="Line-7-Copy-8"></path>
                        <path d="M218.375483,27.2520548 L218.193263,600.490685" id="Line-7-Copy-9"></path>
                        <path d="M241.911864,1.66849315 L241.911864,760.303834" id="Line-7-Copy-10"></path>
                        <path d="M267.463031,28.3643836 L266.868225,739.142466" id="Line-7-Copy-11"></path>
                        <path d="M292.006806,55.060274 L291.411999,765.838356" id="Line-7-Copy-12"></path>
                        <path d="M316.55058,86.2054795 L315.955773,796.983562" id="Line-7-Copy-13"></path>
                        <path d="M341.094354,100.665753 L340.499547,811.443836" id="Line-7-Copy-14"></path>
                        <path d="M364.630734,89.5424658 L364.630734,746.928767" id="Line-7-Copy-15"></path>
                        <path d="M389.174508,60.6219178 L389.174508,718.008219" id="Line-7-Copy-16"></path>
                        <path d="M413.718283,179.641096 L413.718283,605.051233" id="Line-7-Copy-17"></path>
                        <path d="M438.262057,89.5424658 L438.262057,718.008219" id="Line-7-Copy-18"></path>
                        <path d="M464.820618,87.3178082 L461.433998,663.392877" id="Line-7-Copy-19"></path>
                        <path d="M495.408755,87.3178082 L488.356999,602.270411" id="Line-7-Copy-20"></path>
                        <path d="M519.612245,170.408767 L518.945135,528.912329" id="Line-7-Copy-21"></path>
                        <path d="M544.15602,171.521096 L544.15602,474.408219" id="Line-7-Copy-22"></path>
                    </g>
                </g>
            </g>
        </g>
    </g>
    <image href="_fig2.jpg" height="200" width="200" x="20" y="160"></image>
    <image href="_brookes.jpg" height="300" width="300" x="220" y="60"></image>
    <image href="_duboisdata01.jpg" height="220" width="220" x="420" y="300"></image>
    <image href="_northamerica.jpg" height="200" width="200" x="450" y="480"></image>
    <image href="duboisdata04.jpg" height="300" width="300" x="180" y="300"></image>
</svg>
